<?xml version="1.0" encoding="UTF-8" standalone="no"?>
<svg
   xmlns:dc="http://purl.org/dc/elements/1.1/"
   xmlns:cc="http://creativecommons.org/ns#"
   xmlns:rdf="http://www.w3.org/1999/02/22-rdf-syntax-ns#"
   xmlns:svg="http://www.w3.org/2000/svg"
   xmlns="http://www.w3.org/2000/svg"
   xmlns:sodipodi="http://sodipodi.sourceforge.net/DTD/sodipodi-0.dtd"
   xmlns:inkscape="http://www.inkscape.org/namespaces/inkscape"
   version="1.0"
   width="512.000000pt"
   height="368.000000pt"
   viewBox="0 0 512.000000 368.000000"
   preserveAspectRatio="xMidYMid meet"
   id="svg6"
   sodipodi:docname="bballreference.svg"
   inkscape:version="1.0.2-2 (e86c870879, 2021-01-15)">
  <metadata
     id="metadata12">
    <rdf:RDF>
      <cc:Work
         rdf:about="">
        <dc:format>image/svg+xml</dc:format>
        <dc:type
           rdf:resource="http://purl.org/dc/dcmitype/StillImage" />
      </cc:Work>
    </rdf:RDF>
  </metadata>
  <defs
     id="defs10" />
  <sodipodi:namedview
     pagecolor="#ffffff"
     bordercolor="#666666"
     borderopacity="1"
     objecttolerance="10"
     gridtolerance="10"
     guidetolerance="10"
     inkscape:pageopacity="0"
     inkscape:pageshadow="2"
     inkscape:window-width="1920"
     inkscape:window-height="1017"
     id="namedview8"
     showgrid="false"
     inkscape:zoom="1.4838867"
     inkscape:cx="341.33333"
     inkscape:cy="245.33333"
     inkscape:window-x="-8"
     inkscape:window-y="-8"
     inkscape:window-maximized="1"
     inkscape:current-layer="g4" />
  <g
     transform="matrix(0.11783174,0,0,-0.12093456,-32.999345,413.6967)"
     fill="#000000"
     stroke="none"
     id="g4">
    <path
       d="m 4200,3382 c 0,-5 -68,-12 -152,-16 -84,-4 -155,-10 -158,-15 -3,-4 -48,-11 -100,-15 -52,-4 -99,-11 -104,-17 -6,-5 -28,-9 -50,-10 l -41,-1 44,-9 c 24,-4 48,-12 55,-17 6,-5 32,-13 59,-16 26,-4 47,-11 47,-15 0,-5 16,-12 35,-15 19,-4 35,-11 35,-16 0,-6 11,-10 24,-10 14,0 31,-6 38,-13 7,-8 31,-20 53,-27 67,-22 75,-55 15,-65 -22,-4 -40,-10 -40,-15 0,-4 -22,-13 -50,-20 -27,-7 -50,-16 -50,-20 0,-4 -16,-11 -35,-14 -19,-4 -35,-11 -35,-16 0,-4 -13,-11 -30,-15 -16,-4 -30,-10 -30,-14 0,-4 -18,-13 -40,-20 -22,-6 -55,-25 -73,-42 -17,-16 -39,-36 -47,-43 -8,-7 -25,-16 -37,-20 -11,-4 -24,-13 -27,-21 -3,-8 -10,-15 -15,-15 -12,0 -101,-87 -101,-98 0,-6 -38,-54 -74,-92 -7,-8 -17,-25 -20,-37 -4,-13 -11,-23 -16,-23 -4,0 -11,-11 -14,-25 -4,-14 -10,-25 -15,-25 -5,0 -12,-13 -16,-30 -4,-16 -10,-30 -14,-30 -4,0 -13,-24 -21,-52 -7,-29 -17,-60 -21,-68 -4,-8 -10,-27 -14,-42 -5,-26 -9,-28 -59,-28 -29,0 -81,-3 -116,-7 l -63,-6 7,123 c 4,68 11,129 15,134 5,6 12,41 16,79 3,37 10,67 14,67 4,0 12,37 19,82 6,45 16,84 20,87 5,3 12,24 15,45 4,22 10,42 15,45 5,3 13,21 17,39 3,17 11,32 16,32 5,0 9,7 9,17 0,23 49,123 60,123 6,0 10,7 10,15 0,9 7,18 15,21 8,4 15,13 15,21 0,11 -8,12 -37,7 -21,-4 -43,-11 -49,-16 -7,-5 -31,-12 -55,-16 -40,-7 -46,-12 -69,-57 -14,-28 -28,-52 -31,-55 -3,-3 -9,-22 -13,-42 -4,-21 -11,-38 -15,-38 -5,0 -12,-17 -16,-37 -4,-21 -15,-64 -26,-95 -10,-32 -19,-69 -19,-83 0,-14 -4,-25 -9,-25 -5,0 -12,-30 -16,-67 -4,-38 -11,-71 -16,-74 -5,-3 -12,-47 -15,-97 -4,-51 -11,-92 -15,-92 -5,0 -9,-19 -9,-42 0,-24 -3,-60 -6,-80 l -7,-38 h -77 c -85,0 -90,4 -90,72 0,15 -4,29 -8,32 -5,3 -14,30 -21,61 -7,30 -16,55 -21,55 -4,0 -11,16 -14,35 -4,19 -11,35 -16,35 -4,0 -11,14 -15,30 -4,17 -11,30 -16,30 -5,0 -15,15 -23,33 -7,17 -23,42 -35,54 -11,12 -21,25 -21,29 0,4 -23,30 -51,57 -36,35 -49,54 -46,68 3,10 1,19 -4,19 -5,0 -9,-4 -9,-9 0,-5 -13,-12 -30,-16 -17,-4 -30,-10 -30,-15 0,-5 -13,-11 -30,-15 -17,-4 -30,-10 -30,-14 0,-4 -18,-14 -40,-21 -22,-7 -40,-17 -40,-21 0,-4 -13,-10 -30,-14 -17,-4 -30,-10 -30,-15 0,-4 -12,-11 -27,-15 -15,-3 -30,-10 -33,-13 -8,-11 -114,-62 -128,-62 -6,0 -12,-4 -12,-9 0,-5 -14,-12 -30,-16 -16,-4 -30,-11 -30,-16 0,-5 -7,-9 -16,-9 -8,0 -35,-9 -58,-20 -24,-11 -62,-22 -85,-26 -22,-4 -41,-10 -41,-14 0,-5 -24,-11 -52,-15 -29,-4 -58,-11 -64,-16 -7,-5 -64,-12 -128,-16 -64,-3 -116,-10 -116,-15 0,-11 -147,-11 -154,0 -3,5 -56,12 -117,15 -61,4 -117,11 -123,16 -6,5 -37,12 -68,15 -32,4 -58,11 -58,15 0,5 -19,11 -42,15 -50,8 -171,47 -178,57 -3,4 -18,11 -33,14 -15,4 -27,10 -27,14 0,4 -16,13 -35,20 -19,7 -35,17 -35,22 0,5 -7,9 -15,9 -10,0 -15,-10 -15,-30 0,-16 4,-30 9,-30 4,0 11,-21 15,-46 3,-26 10,-52 15,-58 4,-6 14,-39 21,-73 7,-35 16,-63 20,-63 5,0 11,-22 15,-50 4,-27 11,-50 15,-50 5,0 11,-14 15,-31 4,-17 13,-42 21,-57 8,-15 14,-34 14,-42 0,-9 6,-24 14,-35 7,-11 16,-33 20,-50 4,-16 11,-32 14,-35 12,-9 49,-84 56,-112 3,-16 10,-28 15,-28 5,0 12,-14 16,-30 4,-16 11,-30 16,-30 5,0 9,-7 9,-15 0,-9 7,-18 15,-21 8,-4 15,-10 15,-15 0,-11 48,-87 67,-107 7,-7 13,-20 13,-28 0,-8 5,-14 10,-14 6,0 14,-8 17,-17 4,-10 19,-30 35,-45 15,-15 28,-31 28,-36 0,-11 228,-242 238,-242 4,0 21,-13 37,-28 17,-15 38,-31 48,-35 9,-3 17,-11 17,-17 0,-5 7,-10 15,-10 7,0 18,-6 22,-14 4,-8 24,-21 43,-30 37,-17 72,-37 80,-47 3,-4 16,-10 30,-14 14,-4 27,-11 30,-14 9,-11 111,-61 126,-61 8,0 14,-4 14,-9 0,-5 16,-12 35,-15 19,-4 35,-11 35,-16 0,-6 6,-10 13,-10 15,0 177,-49 198,-60 9,-5 38,-12 65,-15 27,-4 54,-11 59,-15 6,-5 39,-12 75,-16 36,-3 70,-10 75,-14 14,-11 233,-30 339,-30 46,0 88,-5 91,-10 8,-12 105,-13 105,-1 0,5 -11,12 -24,15 -14,3 -31,12 -38,19 -7,6 -30,23 -50,37 -21,14 -43,35 -49,47 -7,13 -15,23 -19,23 -7,0 -57,47 -92,86 -9,11 -33,35 -52,54 -20,19 -36,40 -36,47 0,7 -9,17 -20,23 -31,17 -24,35 35,94 30,29 55,58 55,64 0,6 4,12 9,14 14,5 114,157 141,216 14,28 28,52 31,52 4,0 9,18 13,40 3,22 10,40 15,40 4,0 14,28 21,63 7,34 17,67 21,72 4,6 11,41 15,78 4,37 11,67 15,67 5,0 9,36 9,80 v 80 h 39 c 21,0 52,3 68,6 l 30,6 5,-302 c 3,-192 9,-304 15,-308 6,-4 14,-49 18,-99 4,-51 11,-93 15,-93 4,0 11,-30 15,-67 4,-38 10,-70 14,-73 4,-3 12,-27 18,-55 21,-100 48,-190 61,-203 6,-7 12,-24 12,-38 0,-13 4,-24 10,-24 5,0 12,-16 16,-35 l 6,-35 h 84 c 46,0 84,3 84,6 0,3 -9,17 -20,31 -11,14 -22,40 -26,59 -3,19 -10,34 -15,34 -4,0 -11,16 -15,35 -3,19 -10,35 -14,35 -4,0 -11,20 -14,45 -4,25 -11,45 -15,45 -4,0 -14,38 -21,85 -7,47 -17,85 -21,85 -4,0 -11,35 -14,78 -4,42 -11,79 -16,82 -4,3 -11,63 -15,133 -4,70 -11,127 -15,127 -10,0 -12,430 -3,454 5,13 25,16 115,16 h 109 v -84 c 0,-47 4,-87 9,-90 4,-3 11,-28 14,-55 3,-27 10,-58 15,-68 14,-27 32,-87 32,-106 0,-9 4,-17 9,-17 5,0 12,-11 15,-25 4,-14 11,-25 16,-25 6,0 10,-6 10,-14 0,-8 6,-21 13,-28 6,-7 19,-26 27,-43 8,-16 21,-34 27,-38 7,-4 13,-14 13,-22 0,-7 4,-15 8,-17 4,-1 21,-21 37,-43 17,-22 36,-44 42,-48 7,-4 13,-12 13,-18 0,-13 90,-103 113,-112 9,-3 17,-10 17,-15 0,-5 14,-15 30,-22 17,-7 30,-16 30,-21 0,-5 7,-9 15,-9 9,0 18,-7 21,-15 4,-8 12,-15 19,-15 7,0 18,-6 24,-14 7,-8 36,-26 66,-42 30,-15 55,-31 55,-35 0,-4 14,-10 30,-14 17,-4 30,-10 30,-15 0,-5 15,-12 33,-16 17,-3 48,-15 67,-25 19,-11 43,-19 52,-19 10,0 18,-4 18,-9 0,-5 15,-13 33,-16 17,-4 34,-11 37,-14 3,-4 27,-11 55,-17 59,-11 67,-29 32,-68 -13,-14 -28,-26 -32,-26 -4,0 -21,-11 -39,-25 -17,-14 -35,-29 -41,-33 -5,-4 -18,-11 -27,-15 -10,-3 -18,-11 -18,-17 0,-5 -6,-10 -12,-10 -7,0 -35,-12 -63,-25 -27,-14 -58,-25 -67,-25 -10,0 -18,-4 -18,-9 0,-5 -8,-12 -17,-14 -10,-3 -3,-5 15,-6 17,0 32,-5 32,-11 0,-5 23,-12 50,-16 28,-4 50,-10 50,-14 0,-4 25,-13 55,-20 30,-7 55,-17 55,-22 0,-4 10,-8 23,-8 12,-1 40,-9 62,-20 22,-11 48,-19 58,-20 9,0 17,-4 17,-10 0,-5 6,-10 13,-10 14,0 179,-81 187,-91 3,-4 18,-11 33,-14 15,-4 27,-11 27,-15 0,-4 9,-10 20,-13 20,-5 20,0 19,486 0,271 -3,485 -6,477 -3,-8 -9,-17 -12,-20 -3,-3 -19,-31 -36,-62 -16,-32 -33,-58 -37,-58 -4,0 -8,-7 -8,-15 0,-9 -7,-18 -15,-21 -8,-4 -15,-12 -15,-19 0,-6 -9,-20 -20,-30 -11,-10 -20,-23 -20,-29 0,-6 -11,-21 -24,-33 -19,-18 -30,-21 -62,-16 -21,3 -43,9 -49,13 -5,4 -31,11 -57,14 -27,4 -48,11 -48,15 0,5 -20,12 -45,15 -25,4 -45,11 -45,15 0,5 -13,11 -30,14 -16,4 -50,16 -74,27 -25,11 -50,20 -55,20 -6,0 -11,4 -11,9 0,5 -13,12 -30,16 -16,4 -30,11 -30,16 0,5 -5,9 -12,9 -6,0 -26,11 -44,25 -18,14 -35,25 -39,25 -7,0 -23,13 -66,53 -16,15 -34,27 -39,27 -9,0 -200,187 -200,196 0,5 -42,66 -51,74 -3,3 -12,20 -20,38 -8,17 -17,32 -21,32 -3,0 -9,14 -13,30 -4,17 -10,30 -15,30 -5,0 -12,15 -15,33 -4,17 -11,37 -15,42 -13,18 -30,127 -30,195 0,101 -2,100 223,100 118,0 187,-4 187,-10 0,-6 36,-10 87,-10 122,0 416,-21 428,-30 6,-4 47,-11 93,-15 45,-4 84,-11 87,-15 3,-4 34,-11 70,-15 36,-3 65,-10 65,-15 0,-4 16,-10 35,-12 l 35,-4 v 66 c 0,75 -8,84 -84,95 -25,4 -46,11 -46,15 0,3 -53,13 -117,20 -65,7 -123,17 -129,21 -6,5 -71,12 -145,15 -74,4 -138,10 -144,14 -5,5 -136,11 -289,15 -325,9 -323,9 -313,91 2,25 9,49 15,53 6,3 14,19 17,34 4,15 11,27 15,27 5,0 12,10 16,22 15,50 145,200 219,253 15,11 32,25 39,31 6,5 19,13 29,17 9,3 17,11 17,17 0,5 6,10 14,10 7,0 19,7 26,15 7,8 30,20 51,27 22,6 39,15 39,19 0,4 14,10 30,14 17,4 30,10 30,15 0,4 16,11 36,15 21,3 46,13 58,20 12,8 46,17 76,21 30,4 57,10 60,14 3,4 30,10 62,14 l 56,7 76,-75 c 42,-42 76,-79 76,-84 0,-4 16,-23 35,-42 19,-19 35,-40 35,-47 0,-8 7,-16 15,-19 8,-4 15,-13 15,-20 0,-8 7,-17 15,-20 8,-4 15,-12 15,-19 0,-7 9,-23 19,-37 11,-13 23,-37 26,-51 4,-15 11,-27 15,-27 5,0 11,-8 13,-17 3,-10 5,174 6,410 l 1,427 h -200 c -110,0 -200,-4 -200,-8 z M 2281,2662 c 25,-26 59,-69 75,-97 15,-27 31,-52 35,-55 4,-3 11,-18 14,-33 4,-15 11,-27 15,-27 5,0 11,-18 15,-40 4,-22 11,-42 16,-46 5,-3 9,-28 9,-55 0,-74 -16,-86 -133,-100 -53,-7 -97,-15 -97,-19 0,-4 -22,-10 -50,-14 -27,-4 -50,-11 -50,-15 0,-5 -20,-12 -45,-15 -25,-4 -45,-11 -45,-17 0,-5 -9,-9 -21,-9 -20,0 -21,3 -14,63 4,34 11,64 16,65 5,2 9,14 9,27 0,25 42,161 65,212 8,17 15,36 15,42 0,6 4,11 9,11 5,0 12,14 16,30 4,17 10,30 14,30 4,0 13,16 20,35 7,19 16,35 20,35 5,0 11,9 14,20 8,31 28,24 78,-28 z m 197,-647 c 4,-68 -15,-227 -27,-235 -5,-3 -12,-21 -16,-40 -4,-19 -14,-44 -21,-55 -8,-11 -14,-30 -14,-42 0,-13 -4,-23 -9,-23 -5,0 -15,-15 -21,-34 -6,-19 -14,-36 -18,-38 -4,-2 -18,-24 -32,-50 -13,-26 -30,-50 -37,-52 -7,-3 -13,-12 -13,-19 0,-8 -16,-28 -35,-46 -19,-17 -35,-38 -35,-45 0,-17 -24,-27 -44,-20 -8,3 -18,19 -21,35 -4,16 -10,29 -15,29 -5,0 -11,14 -15,30 -4,17 -10,30 -15,30 -5,0 -11,15 -15,33 -4,17 -15,58 -26,90 -10,31 -19,70 -19,86 0,16 -5,31 -11,33 -8,3 -13,53 -17,145 l -5,141 49,22 c 27,13 65,25 86,28 21,2 38,8 38,12 0,4 24,11 52,14 29,4 57,11 63,16 13,10 73,17 140,16 l 50,-1 z"
       id="path2"
       style="fill:#ffffff" />
  </g>
</svg>
