<?xml version="1.0" encoding="UTF-8" standalone="no"?>
<svg
   xmlns:dc="http://purl.org/dc/elements/1.1/"
   xmlns:cc="http://creativecommons.org/ns#"
   xmlns:rdf="http://www.w3.org/1999/02/22-rdf-syntax-ns#"
   xmlns:svg="http://www.w3.org/2000/svg"
   xmlns="http://www.w3.org/2000/svg"
   xmlns:sodipodi="http://sodipodi.sourceforge.net/DTD/sodipodi-0.dtd"
   xmlns:inkscape="http://www.inkscape.org/namespaces/inkscape"
   width="800px"
   height="800px"
   viewBox="0 0 24 24"
   fill="none"
   version="1.1"
   id="svg4"
   sodipodi:docname="tables.svg"
   inkscape:version="1.0.2-2 (e86c870879, 2021-01-15)">
  <metadata
     id="metadata10">
    <rdf:RDF>
      <cc:Work
         rdf:about="">
        <dc:format>image/svg+xml</dc:format>
        <dc:type
           rdf:resource="http://purl.org/dc/dcmitype/StillImage" />
      </cc:Work>
    </rdf:RDF>
  </metadata>
  <defs
     id="defs8" />
  <sodipodi:namedview
     pagecolor="#ffffff"
     bordercolor="#666666"
     borderopacity="1"
     objecttolerance="10"
     gridtolerance="10"
     guidetolerance="10"
     inkscape:pageopacity="0"
     inkscape:pageshadow="2"
     inkscape:window-width="1920"
     inkscape:window-height="1017"
     id="namedview6"
     showgrid="false"
     inkscape:zoom="0.56433934"
     inkscape:cx="700.63628"
     inkscape:cy="653.73974"
     inkscape:window-x="-8"
     inkscape:window-y="-8"
     inkscape:window-maximized="1"
     inkscape:current-layer="svg4"
     inkscape:document-rotation="0" />
  <path
     d="M 3.8870588,8.6247059 H 19.887059 M 3.8870588,13.624706 H 19.887059 M 8.8870588,3.6247059 V 18.624706 m -1.8,0 h 9.6000002 c 1.1201,0 1.6802,0 2.108,-0.218 0.3763,-0.1917 0.6823,-0.4977 0.874,-0.874 0.218,-0.4278 0.218,-0.9879 0.218,-2.108 V 6.8247059 c 0,-1.1201 0,-1.68016 -0.218,-2.10798 -0.1917,-0.37633 -0.4977,-0.68229 -0.874,-0.87403 -0.4278,-0.21799 -0.9879,-0.21799 -2.108,-0.21799 H 7.0870588 c -1.1201,0 -1.68016,0 -2.10798,0.21799 -0.37633,0.19174 -0.68229,0.4977 -0.87403,0.87403 -0.21799,0.42782 -0.21799,0.98787 -0.21799,2.10798 v 8.6000001 c 0,1.1201 0,1.6802 0.21799,2.108 0.19174,0.3763 0.4977,0.6823 0.87403,0.874 0.42782,0.218 0.98787,0.218 2.10798,0.218 z"
     stroke="#000000"
     stroke-width="2"
     id="path2"
     style="fill:none;stroke:#ffffff;stroke-opacity:1;stroke-width:1.2;stroke-miterlimit:4;stroke-dasharray:none" />
</svg>
